<?xml version="1.0" standalone="no"?>
<!DOCTYPE svg PUBLIC "-//W3C//DTD SVG 20010904//EN"
 "http://www.w3.org/TR/2001/REC-SVG-20010904/DTD/svg10.dtd">
<svg version="1.0" xmlns="http://www.w3.org/2000/svg"
 width="300.000000pt" height="300.000000pt" viewBox="0 0 300.000000 300.000000"
 preserveAspectRatio="xMidYMid meet">
<metadata>
Created by potrace 1.10, written by Peter Selinger 2001-2011
</metadata>
<g transform="translate(0.000000,300.000000) scale(0.100000,-0.100000)"
fill="#000000" stroke="none">
<path d="M1499 2435 c-4 -6 -9 -23 -13 -39 -6 -26 -10 -28 -41 -22 -43 8 -46
-7 -5 -24 34 -14 35 -16 15 -50 -22 -39 -18 -43 18 -16 34 26 34 26 52 6 25
-28 36 -25 25 6 -14 36 -13 39 15 54 36 19 31 32 -9 25 -32 -7 -34 -5 -43 32
-5 21 -11 33 -14 28z"/>
<path d="M1325 2368 c-6 -23 -13 -28 -39 -28 l-31 -1 28 -15 c23 -13 26 -18
16 -35 -14 -28 -4 -36 20 -15 16 15 19 15 31 1 19 -23 32 -18 19 7 -10 18 -8
24 12 39 l23 17 -29 4 c-21 2 -31 10 -36 28 l-6 25 -8 -27z"/>
<path d="M1660 2360 c0 -16 -7 -20 -32 -20 l-33 0 24 -19 c20 -15 22 -21 12
-39 -13 -24 -2 -29 17 -10 10 10 17 10 33 0 25 -16 34 -10 21 15 -8 14 -5 21
16 35 l27 18 -32 0 c-26 0 -33 4 -33 20 0 11 -4 20 -10 20 -5 0 -10 -9 -10
-20z"/>
<path d="M1467 2122 c-21 -23 -21 -32 -3 -68 18 -33 13 -44 -14 -37 -13 3 -22
-1 -26 -12 -6 -14 -18 -16 -83 -14 l-76 4 -3 -30 c-1 -16 -9 -55 -17 -85 -7
-30 -19 -74 -25 -97 -8 -34 -14 -40 -30 -36 -26 7 -25 -3 5 -43 28 -37 81 -56
127 -47 55 11 118 93 71 93 -14 0 -23 20 -41 93 -12 50 -22 98 -22 105 0 10
17 12 68 10 l67 -3 3 -169 c2 -146 0 -171 -13 -179 -9 -5 -20 -20 -26 -34 -8
-21 -14 -24 -46 -21 -30 2 -38 -1 -41 -15 -3 -16 10 -17 158 -17 148 0 161 1
158 18 -3 13 -12 16 -41 14 -23 -2 -37 1 -37 8 0 6 -11 22 -25 36 -25 25 -25
26 -23 192 l3 167 70 0 c81 0 78 9 42 -120 -19 -70 -28 -89 -41 -87 -26 5 -19
-27 14 -58 56 -52 140 -46 188 15 27 34 28 45 3 45 -15 0 -23 13 -35 53 -28
97 -39 148 -33 154 4 3 2 14 -3 24 -9 16 -19 17 -75 12 -54 -5 -69 -3 -85 12
-18 16 -52 15 -49 -2 3 -15 -2 -28 -16 -46 -13 -18 -14 -18 -33 1 -18 18 -19
23 -6 40 9 13 21 18 34 15 16 -4 20 0 20 20 0 14 5 29 10 32 15 9 12 42 -6 59
-21 21 -47 20 -67 -2z m53 -30 c0 -24 -8 -32 -26 -25 -22 8 -17 43 6 43 13 0
20 -7 20 -18z m-189 -237 c10 -38 22 -80 25 -92 6 -22 4 -23 -60 -23 -36 0
-66 3 -66 7 0 7 37 144 46 171 2 8 11 12 20 10 11 -2 23 -26 35 -73z m416 -10
c12 -44 23 -86 23 -92 0 -9 -20 -13 -65 -13 -36 0 -65 1 -65 3 0 2 6 26 14 53
8 27 20 68 26 92 17 68 40 53 67 -43z m-402 -135 c3 -6 -6 -15 -20 -20 -29
-11 -75 -4 -75 12 0 5 -5 6 -12 2 -7 -4 -8 -3 -4 4 9 15 102 16 111 2z m435 4
c0 -13 -64 -34 -83 -28 -12 5 -25 8 -29 9 -4 0 -13 6 -19 12 -10 10 2 12 59
11 40 0 72 -2 72 -4z m-258 -111 c20 -49 18 -53 -17 -53 -38 0 -56 18 -31 32
9 5 16 18 16 28 0 29 19 24 32 -7z"/>
<path d="M1090 1702 l0 -247 64 -13 c68 -12 186 -59 186 -73 0 -5 -20 0 -45
11 -45 19 -177 50 -214 50 -15 0 -21 9 -26 38 -15 94 -47 236 -65 288 -11 31
-20 58 -20 59 0 2 20 0 45 -3 40 -4 45 -2 45 16 0 18 -7 21 -71 24 -39 2 -72
2 -73 1 -1 -2 10 -40 25 -85 29 -86 79 -311 79 -352 0 -22 5 -24 76 -31 135
-12 283 -65 372 -132 l32 -24 33 24 c88 67 235 119 374 132 l69 7 13 77 c14
87 77 334 92 362 9 18 5 19 -66 19 -67 0 -76 -2 -73 -17 3 -14 13 -18 46 -18
27 0 41 -4 38 -11 -17 -43 -47 -163 -61 -239 -9 -49 -18 -100 -21 -111 -3 -18
-14 -23 -61 -29 -63 -8 -183 -42 -198 -56 -5 -5 -14 -9 -20 -9 -5 1 1 9 13 20
26 22 169 70 208 70 l24 0 0 250 c0 138 -2 250 -5 250 -2 0 -25 -10 -50 -22
-34 -16 -45 -28 -45 -45 l0 -22 35 20 35 21 0 -209 0 -209 -59 -12 c-72 -15
-202 -79 -269 -132 l-49 -38 -58 42 c-76 57 -172 104 -253 124 l-67 16 0 207
0 207 27 -14 c36 -19 47 -18 41 4 -4 15 -79 62 -98 62 -3 0 -5 -111 -5 -248z"/>
<path d="M585 965 l0 -115 63 0 c55 0 62 2 62 20 0 16 -7 20 -35 20 l-35 0 0
95 0 95 -27 0 -28 0 0 -115z"/>
<path d="M740 965 l0 -115 70 0 c63 0 70 2 70 20 0 17 -7 20 -45 20 -44 0 -45
1 -45 31 0 31 1 32 40 26 37 -5 40 -3 40 19 0 21 -4 24 -40 24 -36 0 -40 3
-40 25 0 23 4 25 45 25 38 0 45 3 45 20 0 18 -7 20 -70 20 l-70 0 0 -115z"/>
<path d="M962 1064 c-81 -56 -60 -187 35 -213 69 -19 143 33 143 101 0 28 -1
28 -66 28 -62 0 -65 -1 -62 -22 3 -20 8 -22 36 -20 28 3 33 1 30 -15 -2 -13
-14 -19 -45 -21 -38 -3 -43 0 -58 27 -14 27 -14 35 -1 66 13 31 19 35 50 35
19 0 38 -4 41 -10 8 -13 75 -13 75 -1 0 5 -14 21 -31 35 -36 31 -110 36 -147
10z"/>
<path d="M1225 1068 c-37 -104 -75 -221 -73 -223 10 -10 58 10 63 26 9 27 90
28 98 0 4 -17 50 -34 61 -24 3 3 -9 44 -25 92 -51 147 -47 141 -86 141 -18 0
-36 -6 -38 -12z m40 -37 c-3 -5 -1 -12 4 -15 5 -4 12 2 15 11 2 10 2 2 -1 -18
-2 -20 0 -46 6 -58 11 -20 9 -21 -24 -21 -31 0 -34 2 -27 18 16 30 24 74 12
67 -5 -3 -10 -2 -10 4 0 5 6 12 13 14 18 8 19 8 12 -2z"/>
<path d="M1400 966 l0 -114 65 -4 c62 -3 65 -2 65 20 0 19 -5 22 -35 22 l-35
0 0 95 0 95 -30 0 -30 0 0 -114z"/>
<path d="M1648 965 c3 -114 3 -115 28 -115 22 0 24 4 24 50 l0 50 40 -6 c38
-6 40 -5 40 20 0 24 -3 26 -40 26 -36 0 -40 3 -40 25 0 23 3 25 50 25 43 0 50
3 50 20 0 18 -7 20 -77 20 l-78 0 3 -115z"/>
<path d="M1830 966 l0 -114 30 -4 30 -5 0 119 0 118 -30 0 -30 0 0 -114z"/>
<path d="M1930 965 l0 -115 31 0 c31 0 31 1 26 37 -4 21 -11 39 -17 41 -5 2
-10 15 -10 29 0 21 2 23 15 13 8 -7 13 -16 10 -20 -3 -4 2 -10 10 -14 8 -3 17
-1 20 4 4 6 12 10 18 10 7 0 4 -7 -6 -14 -17 -13 -17 -16 -1 -49 13 -28 24
-36 50 -39 41 -5 42 1 8 51 l-25 39 25 25 c32 32 33 67 3 95 -19 18 -35 22
-90 22 l-67 0 0 -115z m120 60 c17 -21 -4 -45 -39 -45 -22 0 -26 4 -26 30 0
26 4 30 26 30 15 0 32 -7 39 -15z"/>
<path d="M2150 962 l0 -119 28 4 c26 4 27 6 24 56 -2 29 -10 59 -17 67 -12 14
-11 57 1 69 7 8 23 -19 29 -49 3 -14 13 -50 23 -80 15 -45 23 -56 43 -58 22
-3 27 4 43 51 10 30 20 67 21 81 3 28 21 56 36 56 14 0 10 -33 -6 -54 -9 -13
-15 -43 -15 -81 0 -59 1 -61 27 -59 l26 1 1 116 1 117 -35 0 c-35 0 -36 -1
-64 -80 -15 -44 -32 -78 -36 -75 -4 2 -20 38 -36 80 -28 72 -30 75 -61 75
l-33 0 0 -118z"/>
<path d="M1470 679 c0 -8 5 -20 12 -27 8 -8 8 -15 -2 -27 -17 -20 -5 -32 15
-15 10 8 15 9 15 1 0 -6 7 -11 15 -11 13 0 13 3 3 20 -10 16 -10 24 0 40 10
17 10 20 -3 20 -8 0 -15 -5 -15 -12 0 -6 -9 -3 -20 7 -16 14 -20 15 -20 4z"/>
<path d="M958 640 c9 -22 19 -40 22 -40 3 0 13 18 22 40 13 32 14 40 3 40 -7
0 -16 -6 -19 -12 -5 -10 -7 -10 -12 0 -3 6 -12 12 -19 12 -11 0 -10 -8 3 -40z"/>
<path d="M1030 660 c-15 -28 4 -60 35 -60 14 0 29 8 35 20 15 28 -4 60 -35 60
-14 0 -29 -8 -35 -20z m58 -17 c5 -17 -26 -29 -40 -15 -6 6 -7 15 -3 22 9 14
37 9 43 -7z"/>
<path d="M1120 645 c0 -39 21 -55 49 -38 20 13 28 73 9 73 -8 0 -14 -11 -13
-27 0 -14 -6 -28 -12 -30 -9 -3 -13 6 -13 26 0 17 -4 31 -10 31 -5 0 -10 -16
-10 -35z"/>
<path d="M1200 640 c0 -29 4 -40 15 -40 9 0 12 6 9 18 -5 16 -5 16 9 0 8 -10
20 -18 27 -18 10 0 10 3 0 15 -10 12 -10 18 0 30 17 20 4 35 -31 35 -27 0 -29
-2 -29 -40z"/>
<path d="M1310 670 c0 -5 5 -10 10 -10 6 0 10 -13 10 -30 0 -16 5 -30 10 -30
6 0 10 12 10 26 0 15 8 33 18 40 15 12 13 13 -20 14 -21 0 -38 -4 -38 -10z"/>
<path d="M1396 656 c-3 -13 -8 -30 -11 -38 -4 -10 5 -14 34 -14 l39 -1 -12 36
c-15 43 -41 52 -50 17z"/>
<path d="M1590 640 l0 -40 63 2 64 2 -15 38 c-19 47 -37 48 -52 4 -14 -42 -40
-39 -40 5 0 16 -4 29 -10 29 -5 0 -10 -18 -10 -40z"/>
<path d="M1720 671 c0 -4 5 -22 11 -40 13 -36 39 -42 40 -8 l0 22 11 -22 c16
-32 34 -28 42 8 8 42 8 49 -4 49 -5 0 -10 -12 -11 -27 l-1 -28 -11 28 c-6 15
-17 27 -24 27 -7 0 -13 -12 -14 -27 l-1 -28 -11 28 c-10 25 -27 37 -27 18z"/>
<path d="M1855 650 c9 -17 13 -35 10 -40 -3 -6 0 -10 7 -10 13 0 41 70 32 79
-2 3 -11 -4 -19 -15 -13 -17 -14 -17 -15 -1 0 9 -7 17 -15 17 -14 0 -14 -3 0
-30z"/>
<path d="M1923 640 c-1 -39 0 -40 30 -40 29 1 30 2 14 14 -14 11 -15 15 -5 20
10 5 10 7 1 12 -18 8 -16 22 5 27 9 3 4 5 -13 6 -28 1 -30 -1 -32 -39z"/>
<path d="M1990 640 c0 -22 5 -40 10 -40 6 0 10 8 10 18 1 16 1 16 11 0 5 -10
17 -18 26 -18 13 0 14 3 6 11 -7 7 -9 25 -6 40 5 27 3 29 -26 29 -30 0 -31 -2
-31 -40z"/>
</g>
</svg>
